{"title":"TMF music factory 9 320kb/s","uid":5556338,"size":176834774,"categoryP":"audio","categoryS":"music","magnet":"?xt=urn:btih:a2f6f3bbfd55c77e0d189fa62950401cc78a1675&amp;dn=TMF+music+factory+9+320kb%2Fs&amp;tr=udp%3A%2F%2Ftracker.openbittorrent.com%3A80&amp;tr=udp%3A%2F%2Fopen.demonii.com%3A1337&amp;tr=udp%3A%2F%2Ftracker.coppersurfer.tk%3A6969&amp;tr=udp%3A%2F%2Fexodus.desync.com%3A6969","seeders":0,"leechers":1,"uploader":"guitarmeeuw","files":20,"time":1273696753,"description":"hi,\n\nthis is my first upload and I'm testing my cd rips. This is a cd rip from TMF music factory 9 (1998). 19 high quality songs, it's a hit cd from that time.\n\nits encoded with the lastest version of LAME and its in 320kb/s. Hope you all like it and in the future I will be uploading some more stuff!\nThanks!\n\nsongs:\n1. vengaboys - boom, boom, boom, boom!!!\n2. Bus stop - you ain't seen nothing yet\n3. Edselia - second floor\n4. Meja - all 'bout the money\n5. Cher - believe\n6. Romeo feat. Gwen Dickey - flying\n7. Close II you - friends\n8. Touch and go - would you...?\n9. Semisonic - closing time\n10. Bran van 3000 - afrodiziak\n11. JD &amp; Mariah - sweetheart\n12. Dru Hill - how deep is your love\n13. Another level - guess I was a fool\n14. U2 - sweetest thing\n15. George Michael - outside\n16. BNN &amp; friends - voorgoed\n17. Cosmonova feat. Tania Evans - singin' in my mind\n18. Party animals - the show\n19. DJ Springer - Jerry's theme\n\n Track |   Start  |  Length  | Start sector | End sector \n    ---------------------------------------------------------\n        1  |  0:00.00 |  3:23.54 |         0    |    15278   \n        2  |  3:23.54 |  3:49.01 |     15279    |    32454   \n        3  |  7:12.55 |  3:46.25 |     32455    |    49429   \n        4  | 10:59.05 |  2:53.62 |     49430    |    62466   \n        5  | 13:52.67 |  3:57.63 |     62467    |    80304   \n        6  | 17:50.55 |  4:35.25 |     80305    |   100954   \n        7  | 22:26.05 |  4:46.62 |    100955    |   122466   \n        8  | 27:12.67 |  3:11.25 |    122467    |   136816   \n        9  | 30:24.17 |  3:50.50 |    136817    |   154116   \n       10  | 34:14.67 |  4:40.62 |    154117    |   175178   \n       11  | 38:55.54 |  4:22.00 |    175179    |   194828   \n       12  | 43:17.54 |  4:11.26 |    194829    |   213679   \n       13  | 47:29.05 |  3:50.62 |    213680    |   230991   \n       14  | 51:19.67 |  3:01.50 |    230992    |   244616   \n       15  | 54:21.42 |  4:46.25 |    244617    |   266091   \n       16  | 59:07.67 |  5:48.00 |    266092    |   292191   \n       17  | 64:55.67 |  3:19.13 |    292192    |   307129   \n       18  | 68:15.05 |  3:04.50 |    307130    |   320979   \n       19  | 71:19.55 |  2:17.42 |    320980    |   331296   \n\nfor details :)\n\nAnd please seed, because my computer is not online 24/7\n","torrent":{"xt":"urn:btih:a2f6f3bbfd55c77e0d189fa62950401cc78a1675","amp;dn":"TMF+music+factory+9+320kb%2Fs","amp;tr":["udp%3A%2F%2Ftracker.openbittorrent.com%3A80","udp%3A%2F%2Fopen.demonii.com%3A1337","udp%3A%2F%2Ftracker.coppersurfer.tk%3A6969","udp%3A%2F%2Fexodus.desync.com%3A6969"],"infoHash":"a2f6f3bbfd55c77e0d189fa62950401cc78a1675","infoHashBuffer":{"type":"Buffer","data":[162,246,243,187,253,85,199,126,13,24,159,166,41,80,64,28,199,138,22,117]},"announce":[],"urlList":[]}}